# xmcd
#
# Track frame offsets:
#	150
#	15368
#	24938
#	36812
#	48045
#	64515
#	73952
#	87077
#	95547
#	107707
#	117371
#	135174
#	147202
#	162852
#	172773
#	187703
#	197917
#	212167
#
# Disc length: 3082 seconds
#
# Revision: 0
# Processed by: cddbd v1.5.2PL0 Copyright (c) Steve Scherf et al.
# Submitted via: AudioConverter v5.0 Copyright (c) Ultimate Shareware Ltd
#
DISCID=e00c0812
DTITLE=The Hill Family - Pickin' at the Home Place
DYEAR=2000
DGENRE=Country
TTITLE0=1 - Two Little Boys
TTITLE1=2 - Yellow Rose of Texas
TTITLE2=3 - Eight More Miles
TTITLE3=4 - Battle of Cedar Creek
TTITLE4=5 - Who Will Watch the Home Place
TTITLE5=6 - Yellow Barber
TTITLE6=7 - Darcy Farrow
TTITLE7=8 - South Wind
TTITLE8=9 - Salt Creek
TTITLE9=10 - Camp Chase
TTITLE10=11 - Bringing Mary Home
TTITLE11=12 - Narway's farewell
TTITLE12=13 - Hard, Ain't It Hard
TTITLE13=14 - Whiskey Before Breakfast
TTITLE14=15 - Ghost In This House
TTITLE15=16 - Cuckoo's Nest
TTITLE16=17 - Durang's Hornpipe
TTITLE17=18 - Rock My Baby To Sleep
EXTD=
EXTT0=
EXTT1=
EXTT2=
EXTT3=
EXTT4=
EXTT5=
EXTT6=
EXTT7=
EXTT8=
EXTT9=
EXTT10=
EXTT11=
EXTT12=
EXTT13=
EXTT14=
EXTT15=
EXTT16=
EXTT17=
PLAYORDER=
